<svg width="32" height="32" viewBox="0 0 32 32" fill="none" xmlns="http://www.w3.org/2000/svg">
<g clip-path="url(#clip0_124_12)">
<path fill-rule="evenodd" clip-rule="evenodd" d="M16 32C24.8366 32 32 24.8366 32 16C32 7.16344 24.8366 0 16 0C7.16344 0 0 7.16344 0 16C0 24.8366 7.16344 32 16 32Z" fill="#999999"/>
<path fill-rule="evenodd" clip-rule="evenodd" d="M18.8923 10.5931V11.8238H23.8154V10.5931H18.8923ZM6.46155 9.95247L12.1427 10.0154C12.1427 10.0154 15.2624 9.85084 15.6924 12.3278C16.1224 14.8048 14.1231 15.39 14.1231 15.39C14.1231 15.39 16.5923 15.9508 16.2484 18.8441C15.9046 21.7373 12.533 21.7671 12.533 21.7671H6.46155V9.95247ZM9.04617 14.6546L11.3971 14.6693C11.5476 14.6693 11.9432 14.6562 12.2685 14.5794C12.4078 14.5465 12.6788 14.4529 12.866 14.2842C12.9437 14.2142 13.0868 14.0168 13.1694 13.7829C13.2497 13.5555 13.2706 13.292 13.2706 13.1909C13.2706 13.0058 13.2368 12.8344 13.1694 12.6768C13.102 12.5192 13.0008 12.3829 12.866 12.2678C12.7311 12.1527 12.5596 12.0627 12.3514 11.9976C12.1433 11.9326 11.8955 11.9001 11.6082 11.9001L9.04617 11.8854V14.6546ZM9.04617 19.623L11.6147 19.6392C11.7791 19.6392 12.2113 19.6247 12.5668 19.5398C12.7189 19.5035 13.0151 19.4001 13.2195 19.2136C13.3044 19.1362 13.4608 18.918 13.551 18.6595C13.6388 18.4082 13.6616 18.1169 13.6616 18.0052C13.6616 17.8006 13.6247 17.6112 13.551 17.437C13.4774 17.2628 13.3669 17.1121 13.2195 16.985C13.0722 16.8578 12.8848 16.7582 12.6574 16.6864C12.4299 16.6145 12.1593 16.5785 11.8453 16.5785L9.04617 16.5623V19.623ZM19.4352 18.0494C19.4389 18.1182 19.4352 19.8151 20.8255 20.2048C22.4396 20.6573 23.1589 19.3165 23.2148 19.1612H25.329C25.2743 19.4158 24.4149 22.8825 19.739 21.7526C16.8687 21.0591 17.0163 17.6606 17.0163 17.3695C17.0163 17.1015 17.0278 15.6757 18.1844 14.3609C19.3411 13.0462 20.9878 13.0462 21.3212 13.0462C21.6547 13.0462 23.3696 13.0462 24.4149 14.2064C25.7672 15.7077 25.499 18.1131 25.499 18.1131L19.4352 18.0494ZM23.1385 16.5623C23.1221 16.2963 23.0688 16.0512 22.9787 15.827C22.8885 15.6027 22.7642 15.4085 22.6057 15.2442C22.4473 15.0799 22.2574 14.9508 22.0361 14.857C21.8148 14.7631 21.5676 14.7162 21.2944 14.7162C21.0485 14.7162 20.8204 14.7657 20.6101 14.8648C20.3997 14.9639 20.2153 15.0982 20.0568 15.2677C19.8984 15.4372 19.7713 15.6327 19.6757 15.8544C19.5801 16.076 19.5241 16.312 19.5077 16.5623H23.1385Z" fill="white"/>
</g>
<defs>
<clipPath id="clip0_124_12">
<rect width="32" height="32" fill="white"/>
</clipPath>
</defs>
</svg>
