<?xml version="1.0" ?><svg data-name="Layer 1" id="Layer_1" viewBox="0 0 512 512" xmlns="http://www.w3.org/2000/svg"><title/><path d="M260.62,259.242q4.656-1.595,9.386-2.951-4.878-11.262-9.943-21.634a463.064,463.064,0,0,1-123.789,17.01c-1.759,0-3.483-.015-5.19-.034-.05,1.45-.084,2.9-.084,4.367a124.521,124.521,0,0,0,31.827,83.318,287.891,287.891,0,0,1,21.967-27.609C207.905,286.215,233.416,268.564,260.62,259.242Z"/><path d="M272.858,208.275a164.678,164.678,0,0,0,66.288-45.6,125.147,125.147,0,0,0-112.632-28.166,582.655,582.655,0,0,1,32.743,49.44Q266.381,195.986,272.858,208.275Z"/><path d="M267.535,279.424c-37.67,12.907-67.175,43.179-88.973,74.7A125.151,125.151,0,0,0,304.608,371.2a503.315,503.315,0,0,0-26.467-95.036C274.581,277.141,271.044,278.221,267.535,279.424Z"/><path d="M239.176,195.829a554.624,554.624,0,0,0-35.8-53.235,125.214,125.214,0,0,0-69.731,87.729,441.027,441.027,0,0,0,116.488-15.067C246.448,208.4,242.776,201.914,239.176,195.829Z"/><path d="M301.4,271.371q5.7,15.053,10.453,30.29a514.113,514.113,0,0,1,14.4,57.732,125.017,125.017,0,0,0,53.082-83.051C352.4,269.585,326.34,267.926,301.4,271.371Z"/><path d="M256,0C114.615,0,0,114.615,0,256S114.615,512,256,512,512,397.385,512,256,397.385,0,256,0Zm0,402.667A146.667,146.667,0,1,1,402.667,256,146.667,146.667,0,0,1,256,402.667Z"/><path d="M340.07,191.888a184.742,184.742,0,0,1-57.539,35.529q5.651,11.746,10.709,23.666a212.9,212.9,0,0,1,50.536-2.069,244.968,244.968,0,0,1,37.21,5.823,124.453,124.453,0,0,0-27.179-76.672Q347.2,185.419,340.07,191.888Z"/></svg>