<svg width="32" height="32" viewBox="0 0 32 32" fill="none" xmlns="http://www.w3.org/2000/svg">
<g clip-path="url(#clip0_124_4)">
<path d="M16.2888 16.2026C16.4828 16.1362 16.6783 16.0747 16.8754 16.0182C16.6721 15.5489 16.465 15.0982 16.2539 14.6661C13.7349 15.3684 11.1323 15.726 8.51713 15.7292C8.4072 15.7292 8.29944 15.7282 8.19276 15.7271C8.18963 15.8177 8.18751 15.9083 8.18751 16C8.18486 17.9219 8.89341 19.7767 10.1767 21.2074C10.5986 20.6047 11.0571 20.0284 11.5496 19.4818C12.9941 17.8884 14.5885 16.7852 16.2888 16.2026Z" fill="#999999"/>
<path d="M17.0537 13.0172C18.6491 12.4243 20.0726 11.4451 21.1967 10.1672C20.2528 9.32692 19.1194 8.72786 17.8935 8.42128C16.6675 8.11471 15.3855 8.10974 14.1572 8.40681C14.8914 9.40141 15.5744 10.4327 16.2037 11.4968C16.5005 11.9984 16.7839 12.5051 17.0537 13.0172Z" fill="#999999"/>
<path d="M16.721 17.464C14.3666 18.2707 12.5225 20.1627 11.1602 22.1328C12.258 22.9985 13.5679 23.5541 14.9534 23.7418C16.3389 23.9295 17.7494 23.7424 19.038 23.2C18.6825 21.1707 18.1284 19.1812 17.3838 17.2603C17.1613 17.3213 16.9403 17.3888 16.721 17.464Z" fill="#999999"/>
<path d="M14.9485 12.2393C14.2675 11.088 13.5204 9.97709 12.711 8.91212C11.6085 9.42473 10.6407 10.1871 9.88423 11.1389C9.12774 12.0906 8.6034 13.2055 8.35278 14.3952C10.8107 14.4073 13.2593 14.0906 15.6333 13.4535C15.403 13.025 15.1735 12.6196 14.9485 12.2393Z" fill="#999999"/>
<path d="M18.8374 16.9607C19.0749 17.5879 19.2927 18.2189 19.4907 18.8538C19.8601 20.0382 20.1606 21.243 20.3907 22.4621C21.2666 21.8668 22.0124 21.0998 22.5827 20.2075C23.153 19.3152 23.536 18.3163 23.7083 17.2714C22.0249 16.8491 20.3962 16.7454 18.8374 16.9607Z" fill="#999999"/>
<path d="M16 0C7.16344 0 0 7.16344 0 16C0 24.8366 7.16344 32 16 32C24.8366 32 32 24.8366 32 16C32 7.16344 24.8366 0 16 0ZM16 25.1667C14.187 25.1667 12.4147 24.6291 10.9073 23.6218C9.39981 22.6146 8.22489 21.1829 7.53109 19.5079C6.83728 17.8329 6.65575 15.9898 7.00945 14.2117C7.36315 12.4335 8.23619 10.8002 9.51817 9.51817C10.8002 8.23619 12.4335 7.36315 14.2117 7.00945C15.9898 6.65575 17.8329 6.83728 19.5079 7.53109C21.1829 8.22489 22.6146 9.39981 23.6218 10.9073C24.6291 12.4147 25.1667 14.187 25.1667 16C25.1667 18.4312 24.2009 20.7627 22.4818 22.4818C20.7627 24.2009 18.4312 25.1667 16 25.1667Z" fill="#999999"/>
<path d="M21.2544 11.993C20.2025 12.9482 18.9833 13.7009 17.6582 14.2136C17.8937 14.703 18.1168 15.196 18.3275 15.6927C19.3715 15.5242 20.4318 15.4808 21.486 15.5634C22.2694 15.6248 23.0469 15.7465 23.8116 15.9273C23.7982 14.1848 23.2 12.4973 22.113 11.1353C21.8377 11.4376 21.5515 11.7235 21.2544 11.993Z" fill="#999999"/>
</g>
<defs>
<clipPath id="clip0_124_4">
<rect width="32" height="32" fill="white"/>
</clipPath>
</defs>
</svg>
