<svg width="32" height="32" viewBox="0 0 32 32" fill="none" xmlns="http://www.w3.org/2000/svg">
<g clip-path="url(#clip0_124_17)">
<path d="M32 16.0972C32 7.26063 24.8366 0.0971909 16 0.0971909C7.16344 0.0971909 0 7.26063 0 16.0972C0 24.0833 5.851 30.7025 13.5 31.9028V20.7222H9.4375V16.0972H13.5V12.5722C13.5 8.56219 15.8887 6.34719 19.5434 6.34719C21.294 6.34719 23.125 6.65969 23.125 6.65969V10.5972H21.1074C19.1199 10.5972 18.5 11.8305 18.5 13.0958V16.0972H22.9375L22.2281 20.7222H18.5V31.9028C26.1491 30.7025 32 24.0833 32 16.0972Z" fill="#999999"/>
</g>
<defs>
<clipPath id="clip0_124_17">
<rect width="32" height="32" fill="white"/>
</clipPath>
</defs>
</svg>
