<svg width="402" height="56" viewBox="0 0 402 56" fill="none" xmlns="http://www.w3.org/2000/svg">
<g clip-path="url(#clip0_26_80)">
<path d="M3.11003 22.94L24.03 2.02001C26.13 -0.0799927 29.54 -0.0799927 31.65 2.02001L52.57 22.94C54.67 25.04 54.67 28.45 52.57 30.55L29.21 53.91C28.46 54.66 27.23 54.66 26.48 53.91L3.11003 30.55C1.01003 28.45 1.01003 25.04 3.11003 22.94Z" fill="#FFC21A"/>
<path d="M37.48 7.99001V28.57C37.48 28.57 33.53 30.53 31.53 28.53L29.97 27.81L28 29.5L24.81 28.89L20.63 29.45L18.35 27.73L18.44 8.22001L27.84 0.0700073L37.48 7.99001Z" fill="white"/>
<path d="M28.89 42.26L37.96 29.95C38.05 29.86 38.12 29.76 38.23 29.58C38.37 29.34 38.44 29.07 38.45 28.8L38.47 26.42C38.47 26.42 38.47 26.39 38.47 26.38C38.47 26.38 38.47 26.37 38.47 26.36L38.68 10.07C37.98 9.88999 37.28 8.29999 36.55 8.25999L36.31 26.95C36.04 27.87 35.2 28.54 34.2 28.53C32.99 28.52 32.02 27.53 32.03 26.32L32.24 3.51999C31.55 3.58999 30.88 1.27999 30.18 1.32999L29.95 26.3C29.94 27.51 28.95 28.48 27.74 28.47C26.53 28.46 25.56 27.47 25.57 26.26L25.79 1.85999C25.11 1.87999 24.4 3.94999 23.71 3.94999L23.5 26.25C23.49 27.46 22.5 28.43 21.29 28.42C20.25 28.42 19.39 27.68 19.18 26.7L19.42 8.22999C18.7 8.14999 17.95 10.62 17.24 10.48L17 28.62C17 28.96 17.1 29.28 17.29 29.55L26.31 42.26C26.6 42.67 27.08 42.93 27.59 42.93C28.1 42.93 28.58 42.69 28.88 42.28L28.89 42.26ZM25.16 36.88L20.56 30.39C20.8 30.43 21.04 30.47 21.28 30.47C22.57 30.48 23.73 29.9 24.52 28.99C25.29 29.91 26.44 30.52 27.73 30.53C29.02 30.54 30.18 29.96 30.97 29.05C31.74 29.97 32.89 30.58 34.18 30.59C34.42 30.59 34.65 30.56 34.87 30.53L30.15 36.93L25.16 36.88Z" fill="#1C1C1C"/>
<path d="M27.84 55.68C26.8 55.68 25.81 55.27 25.07 54.53L1.15 30.6C0.41 29.86 0 28.88 0 27.83C0 26.78 0.41 25.8 1.15 25.06L25.07 1.15C25.81 0.41 26.79 0 27.84 0C28.89 0 29.87 0.41 30.61 1.15L54.54 25.08C55.28 25.82 55.69 26.8 55.69 27.85C55.69 28.9 55.28 29.88 54.54 30.62L30.61 54.55C29.87 55.29 28.89 55.7 27.84 55.7V55.68ZM27.84 2.4C27.44 2.4 27.05 2.56 26.77 2.84L2.84 26.77C2.55 27.06 2.4 27.44 2.4 27.84C2.4 28.24 2.56 28.63 2.84 28.91L26.77 52.84C27.34 53.41 28.34 53.41 28.91 52.84L52.84 28.91C53.13 28.62 53.28 28.24 53.28 27.84C53.28 27.44 53.12 27.05 52.84 26.77L28.91 2.84C28.62 2.55 28.24 2.4 27.84 2.4Z" fill="#1C1C1C"/>
<path d="M93.54 36.72C93.54 39.74 92.45 42.09 90.26 43.77C88.07 45.45 85.1 46.3 81.35 46.3C77.29 46.3 74.16 45.78 71.97 44.73V40.89C73.38 41.48 74.91 41.95 76.56 42.3C78.21 42.65 79.86 42.82 81.48 42.82C84.14 42.82 86.14 42.32 87.48 41.31C88.82 40.3 89.5 38.9 89.5 37.1C89.5 35.91 89.26 34.94 88.79 34.18C88.32 33.42 87.52 32.72 86.4 32.08C85.28 31.44 83.58 30.71 81.3 29.9C78.11 28.76 75.84 27.41 74.47 25.85C73.1 24.29 72.42 22.25 72.42 19.73C72.42 17.09 73.41 14.99 75.4 13.43C77.39 11.87 80.01 11.09 83.28 11.09C86.55 11.09 89.82 11.71 92.68 12.97L91.44 16.44C88.61 15.25 85.86 14.66 83.19 14.66C81.08 14.66 79.43 15.11 78.24 16.02C77.05 16.93 76.46 18.18 76.46 19.79C76.46 20.98 76.68 21.95 77.12 22.71C77.56 23.47 78.3 24.16 79.33 24.8C80.36 25.44 81.96 26.13 84.1 26.9C87.69 28.18 90.17 29.56 91.52 31.02C92.87 32.48 93.55 34.4 93.55 36.74L93.54 36.72Z" fill="#1C1C1C"/>
<path d="M117.54 45.84V29.22C117.54 27.13 117.06 25.56 116.11 24.53C115.16 23.5 113.66 22.98 111.63 22.98C108.93 22.98 106.95 23.71 105.71 25.18C104.47 26.65 103.85 29.06 103.85 32.4V45.83H99.96V9.37H103.85V20.41C103.85 21.74 103.79 22.84 103.66 23.71H103.89C104.66 22.48 105.75 21.5 107.16 20.79C108.57 20.08 110.19 19.72 112 19.72C115.14 19.72 117.5 20.47 119.07 21.96C120.64 23.45 121.43 25.82 121.43 29.07V45.83H117.54V45.84Z" fill="#1C1C1C"/>
<path d="M150.39 45.84L145.68 30.77C145.38 29.85 144.83 27.75 144.02 24.49H143.83C143.21 27.22 142.66 29.33 142.19 30.82L137.34 45.84H132.84L125.83 20.15H129.91C131.57 26.6 132.83 31.52 133.7 34.89C134.57 38.26 135.06 40.54 135.19 41.71H135.38C135.55 40.82 135.83 39.67 136.21 38.25C136.59 36.83 136.92 35.71 137.21 34.89L141.92 20.15H146.14L150.73 34.89C151.61 37.58 152.2 39.84 152.51 41.66H152.7C152.76 41.1 152.93 40.23 153.2 39.06C153.47 37.89 155.1 31.58 158.09 20.15H162.12L155.02 45.84H150.4H150.39Z" fill="#1C1C1C"/>
<path d="M177.61 46.31C173.81 46.31 170.82 45.15 168.62 42.84C166.42 40.53 165.33 37.32 165.33 33.21C165.33 29.1 166.35 25.78 168.39 23.34C170.43 20.9 173.17 19.68 176.6 19.68C179.82 19.68 182.37 20.74 184.24 22.86C186.11 24.98 187.05 27.77 187.05 31.24V33.7H169.35C169.43 36.72 170.19 39 171.64 40.57C173.09 42.14 175.12 42.91 177.75 42.91C180.52 42.91 183.25 42.33 185.95 41.18V44.65C184.57 45.24 183.27 45.67 182.05 45.93C180.83 46.19 179.34 46.32 177.61 46.32V46.31ZM176.56 22.94C174.5 22.94 172.85 23.61 171.63 24.96C170.41 26.31 169.68 28.16 169.46 30.54H182.89C182.89 28.09 182.34 26.21 181.25 24.9C180.16 23.59 178.59 22.94 176.56 22.94Z" fill="#1C1C1C"/>
<path d="M201.98 43.1C202.67 43.1 203.33 43.05 203.97 42.95C204.61 42.85 205.12 42.74 205.49 42.63V45.61C205.07 45.81 204.45 45.98 203.63 46.11C202.81 46.24 202.07 46.31 201.42 46.31C196.45 46.31 193.97 43.69 193.97 38.46V23.18H190.29V21.3L193.97 19.68L195.61 14.2H197.86V20.15H205.31V23.17H197.86V38.29C197.86 39.84 198.23 41.02 198.96 41.85C199.69 42.68 200.7 43.09 201.98 43.09V43.1Z" fill="#1C1C1C"/>
<path d="M228.21 45.84V29.22C228.21 27.13 227.73 25.56 226.78 24.53C225.83 23.5 224.33 22.98 222.3 22.98C219.6 22.98 217.62 23.71 216.38 25.18C215.14 26.65 214.52 29.06 214.52 32.4V45.83H210.63V9.37H214.52V20.41C214.52 21.74 214.46 22.84 214.33 23.71H214.56C215.33 22.48 216.42 21.5 217.83 20.79C219.24 20.08 220.86 19.72 222.67 19.72C225.81 19.72 228.17 20.47 229.74 21.96C231.31 23.45 232.1 25.82 232.1 29.07V45.83H228.21V45.84Z" fill="#1C1C1C"/>
<path d="M255.89 45.84L255.12 42.18H254.93C253.65 43.79 252.37 44.88 251.1 45.45C249.83 46.02 248.24 46.31 246.33 46.31C243.78 46.31 241.79 45.65 240.34 44.34C238.89 43.03 238.17 41.16 238.17 38.74C238.17 33.55 242.32 30.83 250.62 30.58L254.98 30.44V28.85C254.98 26.83 254.55 25.35 253.68 24.39C252.81 23.43 251.43 22.95 249.52 22.95C247.38 22.95 244.96 23.61 242.25 24.92L241.05 21.94C242.32 21.25 243.7 20.71 245.21 20.32C246.72 19.93 248.23 19.73 249.75 19.73C252.81 19.73 255.08 20.41 256.56 21.77C258.04 23.13 258.77 25.31 258.77 28.31V45.84H255.89ZM247.1 43.1C249.52 43.1 251.42 42.44 252.81 41.11C254.2 39.78 254.88 37.92 254.88 35.53V33.21L250.99 33.37C247.9 33.48 245.67 33.96 244.3 34.81C242.93 35.66 242.25 36.99 242.25 38.78C242.25 40.19 242.68 41.26 243.53 41.99C244.38 42.72 245.57 43.09 247.1 43.09V43.1Z" fill="#1C1C1C"/>
<path d="M298.94 45.84H279.84V11.57H298.94V15.11H283.82V26.15H298.02V29.67H283.82V42.28H298.94V45.84Z" fill="#1C1C1C"/>
<path d="M309.84 45.84H305.95V9.37H309.84V45.84Z" fill="#1C1C1C"/>
<path d="M317.76 13.19C317.76 12.3 317.98 11.65 318.42 11.23C318.86 10.81 319.4 10.61 320.06 10.61C320.72 10.61 321.22 10.82 321.68 11.24C322.14 11.66 322.36 12.31 322.36 13.19C322.36 14.07 322.13 14.72 321.68 15.15C321.23 15.58 320.69 15.79 320.06 15.79C319.4 15.79 318.86 15.58 318.42 15.15C317.98 14.72 317.76 14.07 317.76 13.19ZM321.98 45.84H318.09V20.15H321.98V45.84Z" fill="#1C1C1C"/>
<path d="M346.8 38.83C346.8 41.22 345.91 43.06 344.13 44.36C342.35 45.66 339.85 46.31 336.63 46.31C333.22 46.31 330.57 45.77 328.66 44.69V41.08C329.89 41.7 331.22 42.2 332.63 42.56C334.04 42.92 335.41 43.1 336.72 43.1C338.75 43.1 340.31 42.78 341.41 42.13C342.51 41.48 343.05 40.49 343.05 39.17C343.05 38.17 342.62 37.31 341.75 36.6C340.88 35.89 339.19 35.05 336.68 34.08C334.29 33.19 332.59 32.41 331.58 31.75C330.57 31.09 329.82 30.33 329.33 29.49C328.84 28.65 328.59 27.64 328.59 26.47C328.59 24.38 329.44 22.72 331.14 21.51C332.84 20.3 335.18 19.69 338.15 19.69C340.92 19.69 343.62 20.25 346.26 21.38L344.88 24.54C342.3 23.48 339.97 22.95 337.87 22.95C336.03 22.95 334.64 23.24 333.7 23.82C332.76 24.4 332.29 25.2 332.29 26.21C332.29 26.9 332.47 27.48 332.82 27.97C333.17 28.46 333.74 28.92 334.52 29.35C335.3 29.78 336.8 30.42 339.02 31.25C342.07 32.36 344.13 33.48 345.2 34.6C346.27 35.72 346.81 37.14 346.81 38.84L346.8 38.83Z" fill="#1C1C1C"/>
<path d="M370.71 45.84V29.22C370.71 27.13 370.23 25.56 369.28 24.53C368.33 23.5 366.83 22.98 364.8 22.98C362.1 22.98 360.12 23.71 358.88 25.18C357.64 26.65 357.02 29.06 357.02 32.4V45.83H353.13V9.37H357.02V20.41C357.02 21.74 356.96 22.84 356.83 23.71H357.06C357.83 22.48 358.92 21.5 360.33 20.79C361.74 20.08 363.36 19.72 365.17 19.72C368.31 19.72 370.67 20.47 372.24 21.96C373.81 23.45 374.6 25.82 374.6 29.07V45.83H370.71V45.84Z" fill="#1C1C1C"/>
<path d="M398.39 45.84L397.62 42.18H397.43C396.15 43.79 394.87 44.88 393.6 45.45C392.33 46.02 390.74 46.31 388.83 46.31C386.28 46.31 384.29 45.65 382.84 44.34C381.39 43.03 380.67 41.16 380.67 38.74C380.67 33.55 384.82 30.83 393.12 30.58L397.48 30.44V28.85C397.48 26.83 397.05 25.35 396.18 24.39C395.31 23.43 393.93 22.95 392.02 22.95C389.88 22.95 387.46 23.61 384.75 24.92L383.55 21.94C384.82 21.25 386.2 20.71 387.71 20.32C389.22 19.93 390.73 19.73 392.25 19.73C395.31 19.73 397.58 20.41 399.06 21.77C400.54 23.13 401.27 25.31 401.27 28.31V45.84H398.39ZM389.6 43.1C392.02 43.1 393.92 42.44 395.31 41.11C396.7 39.78 397.38 37.92 397.38 35.53V33.21L393.49 33.37C390.4 33.48 388.17 33.96 386.8 34.81C385.43 35.66 384.75 36.99 384.75 38.78C384.75 40.19 385.18 41.26 386.03 41.99C386.88 42.72 388.07 43.09 389.6 43.09V43.1Z" fill="#1C1C1C"/>
</g>
<defs>
<clipPath id="clip0_26_80">
<rect width="401.27" height="55.68" fill="white"/>
</clipPath>
</defs>
</svg>
